# xmcd CD database file
#
# Track frame offsets:
#	150
#	7526
#	15441
#	29714
#	38102
#	51914
#	67364
#	78634
#	91686
#
# Disc length: 1406 seconds
#
# Revision: 0
# Processed by: cddbd v1.5.2PL0 Copyright (c) Steve Scherf et al.
# Submitted via: CDex 1.70beta2
#
DISCID=67057c09
DTITLE=compilation - 1899-1924 La naissance du jazz
DYEAR=2010
DGENRE=Jazz
TTITLE0=Leroy Gary - Mama Lucy
TTITLE1=Sid Hemphill et Lucius Smith - Emmaline, Take Your Time
TTITLE2=Eubie Blake - Sounds of Africa
TTITLE3=Orquesta Pablo Valenzuela - La Patti Negra
TTITLE4=Armand Piron - New Orleans Wiggle
TTITLE5=Original Dixieland Jazz Band - St. Louis Blues
TTITLE6=New Orleans Rhythm Kings - Tiger Rag
TTITLE7=King Oliver - Chimes Blues
TTITLE8=Fletcher Henderson - Mandy Make Up Your Mind (Clark-Turk-Meyes-Johnston)
EXTD=YEAR: 2010
EXTT0=
EXTT1=
EXTT2=
EXTT3=
EXTT4=
EXTT5=
EXTT6=
EXTT7=
EXTT8=
PLAYORDER=
